<svg width="401" height="401" viewBox="0 0 401 401" fill="none" xmlns="http://www.w3.org/2000/svg">
<mask id="path-1-inside-1_64_1298" fill="white">
<path fill-rule="evenodd" clip-rule="evenodd" d="M0 101H100H200V201H100V301H200V401H100H0V301V201V101Z"/>
</mask>
<path d="M0 101V100H-1V101H0ZM200 101H201V100H200V101ZM200 201V202H201V201H200ZM100 201V200H99V201H100ZM100 301H99V302H100V301ZM200 301H201V300H200V301ZM200 401V402H201V401H200ZM0 401H-1V402H0V401ZM100 100H0V102H100V100ZM200 100H100V102H200V100ZM201 201V101H199V201H201ZM100 202H200V200H100V202ZM101 301V201H99V301H101ZM100 302H200V300H100V302ZM199 301V401H201V301H199ZM200 400H100V402H200V400ZM0 402H100V400H0V402ZM-1 301V401H1V301H-1ZM-1 201V301H1V201H-1ZM-1 101V201H1V101H-1Z" fill="#C778DD" mask="url(#path-1-inside-1_64_1298)"/>
<mask id="path-3-outside-2_64_1298" maskUnits="userSpaceOnUse" x="199" y="0" width="202" height="302" fill="black">
<rect fill="white" x="199" width="202" height="302"/>
<path fill-rule="evenodd" clip-rule="evenodd" d="M200 1H300H400V101V201V301H300H200V201H300V101H200V1Z"/>
</mask>
<path d="M200 1V0H199V1H200ZM400 1H401V0H400V1ZM400 301V302H401V301H400ZM200 301H199V302H200V301ZM200 201V200H199V201H200ZM300 201V202H301V201H300ZM300 101H301V100H300V101ZM200 101H199V102H200V101ZM300 0H200V2H300V0ZM400 0H300V2H400V0ZM401 101V1H399V101H401ZM401 201V101H399V201H401ZM401 301V201H399V301H401ZM300 302H400V300H300V302ZM300 300H200V302H300V300ZM201 301V201H199V301H201ZM200 202H300V200H200V202ZM299 101V201H301V101H299ZM200 102H300V100H200V102ZM199 1V101H201V1H199Z" fill="#C778DD" mask="url(#path-3-outside-2_64_1298)"/>
</svg>
