<svg width="712" height="123" viewBox="0 0 712 123" fill="none" xmlns="http://www.w3.org/2000/svg">
<rect width="41.472" height="28.704" transform="translate(11)" fill="#282C33"/>
<path d="M29.56 19.616C29.56 21.0453 29.0373 22.2507 27.992 23.232C26.968 24.2133 25.72 24.704 24.248 24.704C22.7333 24.704 21.4747 24.2133 20.472 23.232C19.4907 22.2507 19 21.0453 19 19.616C19 18.9333 19.096 18.208 19.288 17.44C19.48 16.672 19.864 15.68 20.44 14.464L25.4 4H30.2L27.544 15.584C28.1413 16.0107 28.6213 16.576 28.984 17.28C29.368 17.9627 29.56 18.7413 29.56 19.616ZM43.8 19.616C43.8 21.0453 43.2773 22.2507 42.232 23.232C41.1867 24.2133 39.9387 24.704 38.488 24.704C37.016 24.704 35.768 24.2133 34.744 23.232C33.7413 22.2507 33.24 21.0453 33.24 19.616C33.24 18.9333 33.336 18.208 33.528 17.44C33.72 16.672 34.1147 15.68 34.712 14.464L39.704 4H44.472L41.784 15.584C42.4027 16.0107 42.8933 16.576 43.256 17.28C43.6187 17.9627 43.8 18.7413 43.8 19.616Z" fill="#ABB2BF"/>
<rect width="41.472" height="28.704" transform="translate(654 94)" fill="#282C33"/>
<path d="M672.56 113.616C672.56 115.045 672.037 116.251 670.992 117.232C669.968 118.213 668.72 118.704 667.248 118.704C665.733 118.704 664.475 118.213 663.472 117.232C662.491 116.251 662 115.045 662 113.616C662 112.933 662.096 112.208 662.288 111.44C662.48 110.672 662.864 109.68 663.44 108.464L668.4 98H673.2L670.544 109.584C671.141 110.011 671.621 110.576 671.984 111.28C672.368 111.963 672.56 112.741 672.56 113.616ZM686.8 113.616C686.8 115.045 686.277 116.251 685.232 117.232C684.187 118.213 682.939 118.704 681.488 118.704C680.016 118.704 678.768 118.213 677.744 117.232C676.741 116.251 676.24 115.045 676.24 113.616C676.24 112.933 676.336 112.208 676.528 111.44C676.72 110.672 677.115 109.68 677.712 108.464L682.704 98H687.472L684.784 109.584C685.403 110.011 685.893 110.576 686.256 111.28C686.619 111.963 686.8 112.741 686.8 113.616Z" fill="#ABB2BF"/>
<rect x="0.5" y="14.5" width="711" height="94" stroke="#ABB2BF"/>
</svg>
